<?xml version="1.0" encoding="UTF-8"?>
<svg xmlns="http://www.w3.org/2000/svg" width="821.4" height="857.4" viewBox="0 0 821.4 857.4">
  <defs>
    <style>
      .cls-1 {
        stroke-linecap: round;
        stroke-miterlimit: 11.3;
      }

      .cls-1, .cls-2 {
        fill: none;
        stroke: #000;
      }

      .cls-2 {
        stroke-miterlimit: 10;
      }
    </style>
  </defs>
  <g id="glass">
    <polygon class="cls-2" points="820.9 282.6 807.3 284.6 796 286.9 786.3 289.1 778.5 291.4 770 294 761.4 297.7 753.4 301 745 305.1 735.6 311.5 723.4 319.9 713.9 326.8 704.1 335.9 694.8 347.2 689.2 354.9 681.2 368.1 675.7 378.2 671 390.3 665.5 413.6 663 430.2 663 445.2 663 456.6 663 466.3 665.7 478.9 668.6 489.5 671.7 497.9 677.2 512.6 683.7 525.1 688.8 532.9 693.5 538.7 698.1 545.4 702.5 552.4 706.6 557.8 711.2 564.6 714.4 571.4 718.8 578.3 724.6 588.4 729.6 598.7 732.1 605.6 735.4 612.4 737.6 619.7 740.5 627.3 741.9 635.3 744.1 645.1 744.8 653.2 745.2 661.9 745 667.7 744.8 678.7 744.7 689.1 745 693.1 747.8 695.7 749 698 748.8 700.6 820.9 700.6 820.9 282.6"/>
  </g>
  <g id="ruler">
    <path class="cls-1" d="M678.7,813.5h7v1.6h-7c-.4,0-.7,0-1.1,.2-1,.3-1.5,1.3-1.5,2.7s.2,1.8,.7,2.6c.5-.2,1.1-.3,1.8-.3h7v1.6h-7c-.4,0-.7,0-1.1,.2-1,.3-1.5,1.3-1.5,2.7s.1,1.8,.4,2.8h9.2v1.6h-9.9c-.7-1.4-1.1-2.9-1.1-4.5,0-.4,0-.8,0-1.1,.1-.8,.4-1.5,.8-2-.5-.9-.8-2-.9-3.1,0-.2,0-.4,0-.6,0-.4,0-.8,0-1.2,.1-.9,.4-1.6,.9-2.1,0,0,0,0,0,0,.6-.6,1.4-.9,2.4-1,.2,0,.4,0,.6,0Zm6.3-249.1h-1.6c.3-.4,.5-.9,.7-1.6,0-.3,.2-.6,.2-1,0-.3,0-.7,0-1.1,0-.1,0-.3,0-.4,0-.3,0-.5,0-.7,0-.5-.2-1-.4-1.3-.1-.2-.2-.3-.4-.5-.2-.2-.5-.4-.7-.4-.2,0-.5-.1-.7-.1-.2,0-.5,0-.7,0,0,0,0,0-.1,0-.3,0-.6,0-.8,0-.8,.1-1.3,.4-1.6,.8-.2,.3-.3,.6-.4,.9-.1,.4-.2,.9-.2,1.4,0,.3,0,.6,0,.8,0,.3,0,.5,0,.7,0,0,0,.1,0,.2,0,.5,.2,.9,.3,1.1,0,0,0,0,0,0,0,0,0,0,0,.1,0,.2,.1,.3,.1,.3,0,0,0,0,0,0l-1,1-6.7-.7v-7.4h1.5v6.1l4.3,.4c-.2-.9-.4-1.8-.4-2.8,0-.5,0-1.1,.2-1.6,.2-.6,.4-1.2,.8-1.7,.3-.4,.8-.8,1.3-1,.6-.2,1.4-.4,2.3-.4,.4,0,.8,0,1.3,0,.4,0,.8,.2,1.2,.3,.5,.2,.9,.5,1.2,.9,.5,.7,.8,1.4,.9,2.3,0,.3,0,.6,0,1,0,.6,0,1.2-.1,1.7-.1,.9-.4,1.7-.8,2.4Zm0-543.2h-1.6c.3-.4,.5-.9,.7-1.6,0-.3,.2-.6,.2-1,0-.3,0-.7,0-1.1,0-.1,0-.3,0-.4,0-.3,0-.5,0-.7,0-.5-.2-1-.4-1.3-.1-.2-.2-.3-.4-.5-.2-.2-.5-.4-.7-.4-.2,0-.5-.1-.7-.1-.2,0-.5,0-.7,0,0,0,0,0-.1,0-.3,0-.6,0-.8,0-.8,.1-1.3,.4-1.6,.8-.2,.3-.3,.6-.4,.9-.1,.4-.2,.9-.2,1.4,0,.3,0,.6,0,.8,0,.3,0,.5,0,.7,0,0,0,.1,0,.2,0,.5,.2,.9,.3,1.1,0,0,0,0,0,0,0,0,0,0,0,.1,0,.2,.1,.3,.1,.3,0,0,0,0,0,0l-1,1-6.7-.7v-7.4h1.5v6.1l4.3,.4c-.2-.9-.4-1.8-.4-2.8,0-.5,0-1.1,.2-1.6,.2-.6,.4-1.2,.8-1.7,.3-.4,.8-.8,1.3-1,.6-.2,1.4-.4,2.3-.4,.4,0,.8,0,1.3,0,.4,0,.8,.2,1.2,.3,.5,.2,.9,.5,1.2,.9,.5,.7,.8,1.4,.9,2.3,0,.3,0,.6,0,1,0,.6,0,1.2-.1,1.7-.1,.9-.4,1.7-.8,2.4Zm0,651.4h-1.6c.6-1.1,1-2.3,1-3.6,0-.4,0-.7,0-1.1,0-.4-.1-.7-.2-1-.1-.3-.2-.6-.4-.9-.4-.6-1-.9-1.7-1-.1,0-.3,0-.4,0-.3,0-.6,0-.9,.1-.5,.2-.9,.5-1.1,.9-.2,.3-.3,.6-.4,.9,0,.3-.2,.6-.2,1,0,.3,0,.7,0,1v1.6h-1.5v-1.6c0-.7,0-1.2-.2-1.7,0-.3-.2-.5-.4-.7-.3-.5-.8-.8-1.4-.8-.1,0-.2,0-.3,0-.3,0-.5,0-.8,.1-.4,.1-.7,.4-1,.7-.4,.6-.6,1.4-.6,2.5,0,1,.2,2.1,.7,3,0,0,0,0,0,0h-1.6c-.5-1-.7-2.1-.7-3.3s.1-1.6,.3-2.2c0-.2,.1-.4,.2-.6,.1-.3,.3-.6,.5-.8,.3-.3,.6-.5,.9-.7,.6-.3,1.2-.5,1.9-.5s1.2,.1,1.6,.4c0,0,0,0,0,0,.2,.1,.4,.3,.5,.4,.2,.2,.3,.3,.5,.5,.2,.3,.3,.5,.3,.5,0,0,0,0,0,0,0,0,0,0,0,0s0,0,0,0c0,0,.1-.3,.4-.6,0,0,0,0,0,0,.2-.3,.5-.6,.7-.9,.2-.2,.4-.3,.5-.4,.4-.3,.8-.4,1.3-.5,.2,0,.5,0,.8,0,.8,0,1.4,.2,2.1,.5,.4,.2,.8,.5,1.1,.9,.2,.3,.4,.5,.5,.8,.2,.4,.3,.8,.4,1.2,0,.4,.1,.8,.2,1.2,0,.2,0,.4,0,.7,0,1.4-.3,2.7-.9,3.8Zm0-543.2h-1.6c.6-1.1,1-2.3,1-3.6,0-.4,0-.7,0-1.1,0-.4-.1-.7-.2-1-.1-.3-.2-.6-.4-.9-.4-.6-1-.9-1.7-1-.1,0-.3,0-.4,0-.3,0-.6,0-.9,.1-.5,.2-.9,.5-1.1,.9-.2,.3-.3,.6-.4,.9,0,.3-.2,.6-.2,1,0,.3,0,.7,0,1v1.6h-1.5v-1.6c0-.7,0-1.2-.2-1.7,0-.3-.2-.5-.4-.7-.3-.5-.8-.8-1.4-.8-.1,0-.2,0-.3,0-.3,0-.5,0-.8,.1-.4,.1-.7,.4-1,.7-.4,.6-.6,1.4-.6,2.5,0,1,.2,2.1,.7,3,0,0,0,0,0,0h-1.6c-.5-1-.7-2.1-.7-3.3s.1-1.6,.3-2.2c0-.2,.1-.4,.2-.6,.1-.3,.3-.6,.5-.8,.3-.3,.6-.5,.9-.7,.6-.3,1.2-.5,1.9-.5s1.2,.1,1.6,.4c0,0,0,0,0,0,.2,.1,.4,.3,.5,.4,.2,.2,.3,.3,.5,.5,.2,.3,.3,.5,.3,.5,0,0,0,0,0,0,0,0,0,0,0,0s0,0,0,0c0,0,.1-.3,.4-.6,0,0,0,0,0,0,.2-.3,.5-.6,.7-.9,.2-.2,.4-.3,.5-.4,.4-.3,.8-.4,1.3-.5,.2,0,.5,0,.8,0,.8,0,1.4,.2,2.1,.5,.4,.2,.8,.5,1.1,.9,.2,.3,.4,.5,.5,.8,.2,.4,.3,.8,.4,1.2,0,.4,.1,.8,.2,1.2,0,.2,0,.4,0,.7,0,1.4-.3,2.7-.9,3.8Zm-.8,594.7v-6.7h1.6v9.1h-1.4c-.5-.6-.9-1.2-1.4-1.8-.4-.5-.8-1-1.3-1.4-.9-1-1.9-1.9-3-2.6-.1,0-.2-.2-.3-.2-.3-.2-.7-.5-1.1-.6-.4-.2-.8-.3-1.1-.4-.3,0-.7-.1-1-.1-.4,0-.7,0-1.1,.2-.3,.1-.5,.3-.7,.5-.2,.2-.3,.4-.4,.7-.2,.5-.3,1.2-.3,2,0,1.2,.4,2.4,1,3.4,0,.1,.1,.2,.2,.3h-1.7c-.7-1.2-1.1-2.5-1.1-3.9,0-.4,0-.8,0-1.2,0-.6,.3-1.1,.5-1.6,.4-.7,.9-1.2,1.5-1.6s1.3-.5,2-.5c.6,0,1.2,.1,1.7,.3,.5,.2,1,.4,1.5,.7,.4,.3,.8,.6,1.2,.9,1.6,1.3,3.1,2.8,4.6,4.5Zm0-543.2v-6.7h1.6v9.1h-1.4c-.5-.6-.9-1.2-1.4-1.8-.4-.5-.8-1-1.3-1.4-.9-1-1.9-1.9-3-2.6-.1,0-.2-.2-.3-.2-.3-.2-.7-.5-1.1-.6-.4-.2-.8-.3-1.1-.4-.3,0-.7-.1-1-.1-.4,0-.7,0-1.1,.2-.3,.1-.5,.3-.7,.5-.2,.2-.3,.4-.4,.7-.2,.5-.3,1.2-.3,2,0,1.2,.4,2.4,1,3.4,0,.1,.1,.2,.2,.3h-1.7c-.7-1.2-1.1-2.5-1.1-3.9,0-.4,0-.8,0-1.2,0-.6,.3-1.1,.5-1.6,.4-.7,.9-1.2,1.5-1.6s1.3-.5,2-.5c.6,0,1.2,.1,1.7,.3,.5,.2,1,.4,1.5,.7,.4,.3,.8,.6,1.2,.9,1.6,1.3,3.1,2.8,4.6,4.5Zm1.5,167.5h-1.5c0-.3,.1-.6,.2-.9,0-.3,0-.6,0-.8,0,0,0-.2,0-.2,0-.2,0-.5,0-.7,0-.2,0-.5-.2-.7,0-.2,0-.3-.2-.5-.2-.4-.4-.8-.6-1.1-.2-.3-.5-.6-.8-.9-.4-.3-.8-.6-1.3-.8-.4-.1-.8-.3-1.2-.3-.2,0-.4,0-.5,0,.7,1.1,1,2.2,1,3.3s-.3,2.4-.9,3.2c0,.1-.2,.2-.3,.3-.6,.7-1.5,1.1-2.4,1.2-.3,0-.6,0-.9,0-.8,0-1.6-.2-2.3-.5-.7-.3-1.3-.8-1.7-1.4,0,0,0-.1-.1-.2-.3-.4-.4-.8-.6-1.3,0-.4-.1-.8-.2-1.2,0-.1,0-.2,0-.3,0-2.8,1.6-4.4,4.9-4.8,.6,0,1.2-.1,1.9-.1,.6,0,1.3,0,1.9,.1,1.3,.2,2.4,.5,3.2,1,.4,.2,.8,.5,1.1,.8,.4,.4,.7,.7,.9,1.1,.1,.2,.2,.4,.3,.6,.2,.5,.4,1.1,.5,1.7,0,.4,.1,.8,.1,1.2,0,.4,0,.8,0,1.2,0,.3-.1,.6-.2,.9Zm-14.3,154.1h1.5c0,.3-.1,.6-.2,.9,0,.3,0,.6,0,.8,0,0,0,.2,0,.2,0,.2,0,.5,0,.7,0,.2,0,.5,.2,.7,0,.2,0,.3,.2,.5,.2,.4,.4,.8,.6,1.1,.2,.3,.5,.6,.8,.9,.4,.3,.8,.6,1.3,.8,.4,.1,.8,.3,1.2,.3,.2,0,.4,0,.5,0-.3-.5-.5-.9-.7-1.5-.2-.6-.3-1.2-.3-1.8,0-1.3,.3-2.4,.9-3.2,0-.1,.2-.2,.3-.3,.6-.7,1.5-1.1,2.4-1.2,.3,0,.6,0,.9,0,.8,0,1.6,.2,2.3,.5,.7,.3,1.3,.8,1.7,1.4,0,0,0,.1,.1,.2,.3,.4,.4,.8,.6,1.3,0,.4,.1,.8,.2,1.2,0,.1,0,.2,0,.3,0,2.8-1.6,4.4-4.9,4.8-.6,0-1.2,.1-1.9,.1-.6,0-1.3,0-1.9-.1-1.3-.2-2.4-.5-3.2-1-.4-.2-.8-.5-1.1-.8-.4-.4-.7-.7-.9-1.1-.1-.2-.2-.4-.3-.6-.2-.5-.4-1.1-.5-1.7,0-.4-.1-.8-.1-1.2,0-.4,0-.8,0-1.2,0-.3,.1-.6,.2-.9Zm0-45.3v-9.8h1.5l13,6.2v1.7l-12.9-6.2v8.1h-1.6Zm4.1,374.7h1.5c-.4,1-.6,2-.6,3,0,.3,0,.7,0,1,0,.4,.2,.7,.3,1,.1,.3,.3,.6,.6,.8,.7,.6,1.7,.9,3.1,.9s2.5-.3,3.1-.9c.3-.3,.6-.7,.7-1.1,.1-.3,.2-.6,.2-1,0-.3,0-.5,0-.8,0-.9-.1-1.8-.4-2.6,0-.1-.1-.3-.2-.4h1.5c.4,1,.6,2.1,.6,3.2,0,.6,0,1.2-.2,1.8-.2,.7-.5,1.3-1,1.8-.8,.9-2.2,1.4-4.1,1.5,0,0-.2,0-.2,0-.5,0-1,0-1.5-.1-1.2-.2-2.1-.6-2.7-1.3,0,0,0,0,0-.1-.8-1-1.2-2.2-1.2-3.6s.2-2.1,.6-3.2Zm10.4-219.3h-4.3v7h-1.7l-8.5-6.8v-1.7h8.7v-2h1.5v2h4.3v1.6Zm0-543.2h-4.3v7h-1.7l-8.5-6.8v-1.7h8.7v-2h1.5v2h4.3v1.6Zm0,330.3c0-.4,0-.8,0-1.2,0-.2,0-.3,0-.5,0-.9-.3-1.7-.6-2.3-.4-.7-1-1.3-1.7-1.6-.7-.3-1.4-.5-2.1-.5-.3,0-.6,0-.8,0-.4,0-.8,.2-1.1,.5-.2,.1-.4,.3-.6,.5-.2,.2-.4,.5-.6,.7,0,0,0,0,0,0-.2,.3-.3,.5-.3,.6,0,0,0,0,0,0h0s0,0,0,0c0,0,0-.2-.3-.5,0,0,0,0,0,0-.1-.2-.3-.3-.5-.5-.2-.1-.3-.3-.5-.4,0,0-.1,0-.2-.1-.4-.2-.9-.3-1.5-.3s-1.3,.2-1.8,.5c-.3,.2-.6,.4-.8,.7-.2,.2-.4,.5-.5,.8,0,.2-.2,.3-.2,.5-.2,.6-.3,1.3-.3,2,0,.1,0,.3,0,.4,0,.4,0,.7,.1,1,0,.4,.2,.7,.4,1.1,.1,.2,.2,.4,.4,.6,.3,.4,.6,.7,1,.9,.6,.3,1.2,.5,1.8,.5,0,0,0,0,0,0,.3,0,.5,0,.8,0,.3,0,.6-.2,.9-.4,.2-.1,.4-.3,.5-.4,.2-.2,.4-.4,.5-.6,.2-.3,.3-.5,.3-.5s0,0,0,0,0,0,0,0c0,0,0,.3,.4,.7,.1,.2,.3,.5,.5,.7,.2,.2,.4,.4,.7,.6,0,0,0,0,0,0,.5,.3,1.1,.5,1.9,.5,.8,0,1.5-.2,2.1-.5,.4-.2,.7-.4,1-.7,.3-.3,.5-.6,.7-.9,0-.1,.2-.3,.2-.4,.2-.4,.3-.8,.4-1.2Zm0-112.3c.1-.6,.2-1.1,.2-1.7,0-.2,0-.5,0-.7-.2-2.6-1.8-4.2-4.7-4.7-.9-.2-1.8-.2-2.7-.2-.6,0-1.1,0-1.6,0-3.8,.4-5.8,2.3-5.8,5.6,0,.5,0,.9,.1,1.4,.2,1.1,.8,2.1,1.7,2.8,.9,.7,2,1.1,3.5,1.3,.7,0,1.3,.1,2,.1,.6,0,1.3,0,1.9-.1,1.5-.2,2.7-.6,3.6-1.3,.8-.6,1.4-1.5,1.7-2.5Zm0,489.4h-12.8l1.9,2.9h-1.8l-1.7-2.7v-1.8h14.5v1.6Zm0-479.6h-12.8l1.9,2.9h-1.8l-1.7-2.7v-1.8h14.5v1.6Zm0-53.9h-12.8l1.9,2.9h-1.8l-1.7-2.7v-1.8h14.5v1.6Zm0-9.7h-12.8l1.9,2.9h-1.8l-1.7-2.7v-1.8h14.5v1.6Zm0-44.2h-12.8l1.9,2.9h-1.8l-1.7-2.7v-1.8h14.5v1.6Zm0-53.9h-12.8l1.9,2.9h-1.8l-1.7-2.7v-1.8h14.5v1.6Zm0-53.9h-12.8l1.9,2.9h-1.8l-1.7-2.7v-1.8h14.5v1.6Zm0-53.9h-12.8l1.9,2.9h-1.8l-1.7-2.7v-1.8h14.5v1.6Zm-1.2,257.8c0-.4,0-.7-.1-1.1,0-.3-.2-.7-.3-1-.1-.3-.3-.5-.6-.7-.2-.2-.4-.3-.7-.5-.2,0-.3-.2-.5-.3-.3-.1-.7-.3-1-.3-.7-.2-1.5-.2-2.5-.3,0,0-.2,0-.2,0-.5,0-.9,0-1.4,0-1,0-1.8,.3-2.4,.5-.3,.1-.5,.2-.7,.4-.5,.3-.8,.7-1,1.1-.2,.4-.3,.9-.4,1.3,0,.2,0,.5,0,.7,0,.4,0,.8,.1,1.1,0,.3,.2,.6,.3,.9,.2,.5,.6,.9,1.2,1.2,.2,0,.3,.2,.5,.3,.3,.1,.7,.3,1,.3,.7,.2,1.5,.2,2.5,.3,0,0,.2,0,.2,0,.5,0,.9,0,1.4,0,1,0,1.8-.3,2.4-.5,.3-.1,.5-.2,.7-.4,.2-.2,.5-.3,.6-.5,.2-.2,.3-.4,.4-.6,.3-.6,.4-1.3,.4-2Zm-.4,218.7c-.2-.4-.5-.7-.8-.9-.4-.2-.7-.4-1.1-.5-.4-.1-.8-.2-1.2-.2-.9,0-1.6,.2-2.2,.7,0,0,0,0-.1,.1-.3,.3-.5,.7-.6,1.1,0,.3-.1,.6-.2,.9,0,.2,0,.3,0,.5,0,.4,0,.7,.1,1.1,0,.3,.1,.5,.3,.8,.1,.3,.2,.5,.4,.7,.1,.3,.3,.5,.5,.7,0,0,0,0,0,0,.4,0,.8,0,1.2,0,.8,0,1.4-.2,1.9-.4,0,0,.1,0,.2,0,.2,0,.4-.2,.6-.3,.4-.2,.8-.5,.9-.9,.2-.3,.3-.5,.3-.8,0-.2,0-.5,0-.8,0,0,0,0,0-.1,0-.7-.1-1.3-.3-1.8Zm-5.9-157.3s0,0,.1-.1c.3-.3,.5-.7,.6-1.1,0-.3,.1-.6,.2-.9,0-.2,0-.3,0-.5,0-.4,0-.7-.1-1.1,0-.3-.1-.5-.3-.8-.1-.3-.2-.5-.4-.7-.1-.3-.3-.5-.5-.7,0,0,0,0,0,0-.4,0-.8,0-1.2,0-.8,0-1.4,.2-1.9,.4,0,0-.1,0-.2,0-.2,0-.4,.2-.6,.3-.4,.2-.8,.5-.9,.9-.2,.3-.3,.5-.3,.8,0,.2,0,.5,0,.8,0,0,0,0,0,.1,0,.7,.1,1.3,.3,1.8,.2,.4,.5,.7,.8,.9,.4,.2,.7,.4,1.1,.5,.4,.1,.8,.2,1.2,.2,.9,0,1.6-.2,2.2-.7Zm5.5,48.8c0,0-.2-.1-.2-.2-.3-.2-.6-.3-.9-.5-.4-.1-.8-.2-1.1-.2-.9,0-1.5,.3-2,.9-.2,.3-.4,.6-.5,.9-.1,.5-.2,1-.2,1.6s0,1.3,.3,1.8c0,.3,.2,.5,.4,.7,.4,.5,.9,.8,1.5,.9,.2,0,.3,0,.5,0,.4,0,.9,0,1.2-.3,.3-.1,.5-.3,.8-.4,.3-.2,.5-.5,.7-.8,.2-.5,.3-1.1,.3-1.9,0-1.2-.2-2-.7-2.5Zm-3.7,221.8v-5.3h-6.4l6.4,5.3Zm0-543.2v-5.3h-6.4l6.4,5.3Zm-3,322.2c0-.1-.2-.3-.3-.4-.4-.4-.8-.7-1.4-.7-.2,0-.3,0-.5,0-.8,0-1.4,.3-1.7,.8-.3,.5-.5,1.1-.5,1.9,0,0,0,.1,0,.2,0,.7,.1,1.3,.4,1.9,0,0,0,.1,.1,.2,.2,.4,.6,.6,1,.7,.2,0,.5,0,.7,0,.8,0,1.4-.3,1.8-.8,.4-.4,.6-1.1,.7-1.8,0-.1,0-.2,0-.3,0-.7-.1-1.2-.4-1.7Zm52.1,433.7h-37.9m37.9-26.9h-27.1m27.1,21.6h-13.5m13.5-5.4h-13.5m13.5-5.4h-13.5m13.5-5.4h-13.5m13.5-10.8h-13.5m13.5-5.4h-13.5m13.5-5.4h-13.5m13.5-5.4h-13.5m13.5-5.4h-37.9m37.9-26.9h-27.1m27.1,21.6h-13.5m13.5-5.4h-13.5m13.5-5.4h-13.5m13.5-5.4h-13.5m13.5-10.8h-13.5m13.5-5.4h-13.5m13.5-5.4h-13.5m13.5-5.4h-13.5m13.5-5.4h-37.9m37.9-26.9h-27.1m27.1,21.6h-13.5m13.5-5.4h-13.5m13.5-5.4h-13.5m13.5-5.4h-13.5m13.5-10.8h-13.5m13.5-5.4h-13.5m13.5-5.4h-13.5m13.5-5.4h-13.5m13.5-5.4h-37.9m37.9-26.9h-27.1m27.1,21.6h-13.5m13.5-5.4h-13.5m13.5-5.4h-13.5m13.5-5.4h-13.5m13.5-10.8h-13.5m13.5-5.4h-13.5m13.5-5.4h-13.5m13.5-5.4h-13.5m13.5-5.4h-37.9m37.9-26.9h-27.1m27.1,21.6h-13.5m13.5-5.4h-13.5m13.5-5.4h-13.5m13.5-5.4h-13.5m13.5-10.8h-13.5m13.5-5.4h-13.5m13.5-5.4h-13.5m13.5-5.4h-13.5m13.5-5.4h-37.9m37.9-26.9h-27.1m27.1,21.6h-13.5m13.5-5.4h-13.5m13.5-5.4h-13.5m13.5-5.4h-13.5m13.5-10.8h-13.5m13.5-5.4h-13.5m13.5-5.4h-13.5m13.5-5.4h-13.5m13.5-5.4h-37.9m37.9-26.9h-27.1m27.1,21.6h-13.5m13.5-5.4h-13.5m13.5-5.4h-13.5m13.5-5.4h-13.5m13.5-10.8h-13.5m13.5-5.4h-13.5m13.5-5.4h-13.5m13.5-5.4h-13.5m13.5-5.4h-37.9m37.9-26.9h-27.1m27.1,21.6h-13.5m13.5-5.4h-13.5m13.5-5.4h-13.5m13.5-5.4h-13.5m13.5-10.8h-13.5m13.5-5.4h-13.5m13.5-5.4h-13.5m13.5-5.4h-13.5m13.5-5.4h-37.9m37.9-26.9h-27.1m27.1,21.6h-13.5m13.5-5.4h-13.5m13.5-5.4h-13.5m13.5-5.4h-13.5m13.5-10.8h-13.5m13.5-5.4h-13.5m13.5-5.4h-13.5m13.5-5.4h-13.5m13.5-5.4h-37.9m37.9-26.9h-27.1m27.1,21.6h-13.5m13.5-5.4h-13.5m13.5-5.4h-13.5m13.5-5.4h-13.5m13.5-10.8h-13.5m13.5-5.4h-13.5m13.5-5.4h-13.5m13.5-5.4h-13.5m13.5-5.4h-37.9m37.9-26.9h-27.1m27.1,21.6h-13.5m13.5-5.4h-13.5m13.5-5.4h-13.5m13.5-5.4h-13.5m13.5-10.8h-13.5m13.5-5.4h-13.5m13.5-5.4h-13.5m13.5-5.4h-13.5m13.5-5.4h-37.9m37.9-26.9h-27.1m27.1,21.6h-13.5m13.5-5.4h-13.5m13.5-5.4h-13.5m13.5-5.4h-13.5m13.5-10.8h-13.5m13.5-5.4h-13.5m13.5-5.4h-13.5m13.5-5.4h-13.5m13.5-5.4h-37.9m37.9-26.9h-27.1m27.1,21.6h-13.5m13.5-5.4h-13.5m13.5-5.4h-13.5m13.5-5.4h-13.5m13.5-10.8h-13.5m13.5-5.4h-13.5m13.5-5.4h-13.5m13.5-5.4h-13.5m13.5-5.4h-37.9m37.9-26.9h-27.1m27.1,21.6h-13.5m13.5-5.4h-13.5m13.5-5.4h-13.5m13.5-5.4h-13.5m13.5-10.8h-13.5m13.5-5.4h-13.5m13.5-5.4h-13.5m13.5-5.4h-13.5m13.5-5.4h-37.9m37.9-26.9h-27.1m27.1,21.6h-13.5m13.5-5.4h-13.5m13.5-5.4h-13.5m13.5-5.4h-13.5m13.5-10.8h-13.5m13.5-5.4h-13.5m13.5-5.4h-13.5m13.5-5.4h-13.5m13.5-5.4h-37.9" vector-effect="non-scaling-stroke"/>
  </g>
  <g id="E26_screw" data-name="E26 screw">
    <polygon class="cls-1" points="748.4 701.1 748.4 712.7 749.9 726.3 749.2 742.6 749.2 761.9 746.9 779.8 755.2 792.5 759.3 802.2 766.3 807.5 776.6 812.6 787.2 824.3 794.8 830.7 808.9 833.5 820.9 833.5 820.9 700.6 748.4 701.1"/>
  </g>
</svg>